<?xml version="1.0" encoding="utf-8"?>
<!-- Generator: Adobe Illustrator 24.0.1, SVG Export Plug-In . SVG Version: 6.00 Build 0)  -->
<svg version="1.1" id="Layer_1" xmlns="http://www.w3.org/2000/svg" xmlns:xlink="http://www.w3.org/1999/xlink" x="0px" y="0px"
	 viewBox="0 0 50 50" style="enable-background:new 0 0 50 50;" xml:space="preserve">
<style type="text/css">
	.st0{fill:url(#SVGID_1_);}
	.st1{fill:#FFFFFF;}
</style>
<linearGradient id="SVGID_1_" gradientUnits="userSpaceOnUse" x1="9.4493" y1="9.453" x2="40.547" y2="40.5507" gradientTransform="matrix(1 0 0 1 1.838085e-03 -1.822581e-03)">
	<stop  offset="0" style="stop-color:#00A562"/>
	<stop  offset="0.0664" style="stop-color:#1A9E57"/>
	<stop  offset="0.135" style="stop-color:#2D994F"/>
	<stop  offset="0.2056" style="stop-color:#38964A"/>
	<stop  offset="0.2809" style="stop-color:#3C9548"/>
	<stop  offset="0.6685" style="stop-color:#0099B9"/>
	<stop  offset="1" style="stop-color:#009AD8"/>
</linearGradient>
<path class="st0" d="M35.35,5.08l-20.69,0c-0.71,0-1.37,0.38-1.73,1L2.57,24c-0.36,0.62-0.36,1.38,0,2l10.35,17.92
	c0.36,0.62,1.02,1,1.73,1l20.69,0c0.71,0,1.37-0.38,1.73-1L47.43,26c0.36-0.62,0.36-1.38,0-2L37.08,6.08
	C36.72,5.46,36.06,5.08,35.35,5.08z"/>
<path class="st1" d="M26.71,21.05h-3.42c-0.36,0-0.69,0.19-0.87,0.5l-1.71,2.97c-0.18,0.31-0.18,0.69,0,1l1.71,2.97
	c0.18,0.31,0.51,0.5,0.87,0.5h3.42c0.36,0,0.69-0.19,0.87-0.5l1.71-2.97c0.18-0.31,0.18-0.69,0-1l-1.71-2.97
	C27.4,21.24,27.07,21.05,26.71,21.05z"/>
<path class="st1" d="M38.17,21.05h-3.42c-0.36,0-0.69,0.19-0.87,0.5l-1.71,2.97c-0.18,0.31-0.18,0.69,0,1l1.71,2.97
	c0.18,0.31,0.51,0.5,0.87,0.5h3.42c0.36,0,0.69-0.19,0.87-0.5l1.71-2.97c0.18-0.31,0.18-0.69,0-1l-1.71-2.97
	C38.85,21.24,38.52,21.05,38.17,21.05z"/>
<path class="st1" d="M15.28,21.05h-3.42c-0.36,0-0.69,0.19-0.87,0.5l-1.71,2.97c-0.18,0.31-0.18,0.69,0,1l1.71,2.97
	c0.18,0.31,0.51,0.5,0.87,0.5h3.42c0.36,0,0.69-0.19,0.87-0.5l1.71-2.97c0.18-0.31,0.18-0.69,0-1l-1.71-2.97
	C15.96,21.24,15.63,21.05,15.28,21.05z"/>
</svg>
