<?xml version="1.0" encoding="utf-8"?>
<!-- Generator: Adobe Illustrator 24.0.1, SVG Export Plug-In . SVG Version: 6.00 Build 0)  -->
<svg version="1.1" id="Layer_1" xmlns="http://www.w3.org/2000/svg" xmlns:xlink="http://www.w3.org/1999/xlink" x="0px" y="0px"
	 viewBox="0 0 100 100" style="enable-background:new 0 0 100 100;" xml:space="preserve">
<style type="text/css">
	.st0{fill:url(#SVGID_1_);}
	.st1{fill:#FFFFFF;}
</style>
<linearGradient id="SVGID_1_" gradientUnits="userSpaceOnUse" x1="19.72" y1="19.161" x2="80.2763" y2="79.7173" gradientTransform="matrix(1 0 0 1 1.838085e-03 -1.822581e-03)">
	<stop  offset="0" style="stop-color:#00A663"/>
	<stop  offset="0.0595" style="stop-color:#00A057"/>
	<stop  offset="0.1303" style="stop-color:#089A4E"/>
	<stop  offset="0.2032" style="stop-color:#359749"/>
	<stop  offset="0.2809" style="stop-color:#3D9648"/>
	<stop  offset="0.6685" style="stop-color:#009ABA"/>
	<stop  offset="1" style="stop-color:#009BD9"/>
</linearGradient>
<path class="st0" d="M71.13,10.84l-42.26,0c-0.71,0-1.37,0.38-1.73,1L6.01,48.44c-0.36,0.62-0.36,1.38,0,2l21.13,36.6
	c0.36,0.62,1.02,1,1.73,1l42.26,0c0.71,0,1.37-0.38,1.73-1l21.13-36.6c0.36-0.62,0.36-1.38,0-2l-21.13-36.6
	C72.5,11.22,71.84,10.84,71.13,10.84z"/>
<path class="st1" d="M53.86,41.79h-7.72c-0.36,0-0.69,0.19-0.87,0.5l-3.86,6.68c-0.18,0.31-0.18,0.69,0,1l3.86,6.68
	c0.18,0.31,0.51,0.5,0.87,0.5h7.72c0.36,0,0.69-0.19,0.87-0.5l3.86-6.68c0.18-0.31,0.18-0.69,0-1l-3.86-6.68
	C54.55,41.98,54.22,41.79,53.86,41.79z"/>
<path class="st1" d="M76.05,41.79h-7.72c-0.36,0-0.69,0.19-0.87,0.5l-3.86,6.68c-0.18,0.31-0.18,0.69,0,1l3.86,6.68
	c0.18,0.31,0.51,0.5,0.87,0.5h7.72c0.36,0,0.69-0.19,0.87-0.5l3.86-6.68c0.18-0.31,0.18-0.69,0-1l-3.86-6.68
	C76.74,41.98,76.41,41.79,76.05,41.79z"/>
<path class="st1" d="M31.7,41.79h-7.72c-0.36,0-0.69,0.19-0.87,0.5l-3.86,6.68c-0.18,0.31-0.18,0.69,0,1l3.86,6.68
	c0.18,0.31,0.51,0.5,0.87,0.5h7.72c0.36,0,0.69-0.19,0.87-0.5l3.86-6.68c0.18-0.31,0.18-0.69,0-1l-3.86-6.68
	C32.39,41.98,32.06,41.79,31.7,41.79z"/>
</svg>
