<?xml version="1.0" encoding="utf-8"?>
<!-- Generator: Adobe Illustrator 24.0.1, SVG Export Plug-In . SVG Version: 6.00 Build 0)  -->
<svg version="1.1" id="Layer_1" xmlns="http://www.w3.org/2000/svg" xmlns:xlink="http://www.w3.org/1999/xlink" x="0px" y="0px"
	 viewBox="0 0 200 55" style="enable-background:new 0 0 200 55;" xml:space="preserve">
<style type="text/css">
	.st0{fill:none;}
</style>
<g>
	<rect y="10.33" class="st0" width="200" height="34.34"/>
	<path d="M31.96,44.53c-3.12,0-5.9-0.72-8.33-2.16c-2.43-1.44-4.31-3.38-5.65-5.81c-1.34-2.43-2-5.1-2-8.01c0-3,0.72-5.75,2.16-8.26
		c1.44-2.5,3.38-4.48,5.83-5.92c2.44-1.44,5.14-2.16,8.08-2.16c2.97,0,5.74,0.77,8.33,2.3l-0.45,0.76
		c-2.49-1.47-5.12-2.21-7.88-2.21c-2.73,0-5.26,0.69-7.58,2.07c-2.33,1.38-4.17,3.26-5.54,5.65c-1.37,2.39-2.05,4.99-2.05,7.81
		c0,2.7,0.62,5.21,1.87,7.52c1.24,2.31,3.01,4.15,5.31,5.51c2.29,1.37,4.93,2.05,7.9,2.05c2.76,0,5.38-0.73,7.88-2.21l0.54,0.77
		C37.8,43.76,34.99,44.53,31.96,44.53z"/>
	<path d="M71.47,44.17h-0.9V28.69H49.96v15.48h-0.9V12.58h0.9v15.25h20.61V12.58h0.9V44.17z"/>
	<path d="M100.23,32.33H85.19l-4.68,11.83h-0.9l13.09-33.03h0.09l13.1,33.03h-0.99L100.23,32.33z M99.91,31.53L92.75,13.3
		l-7.24,18.23H99.91z"/>
	<path d="M129.56,12.58v0.85h-9.81v30.73h-0.9V13.44h-9.81v-0.85H129.56z"/>
	<path d="M138.52,12.58v30.73h18.09v0.86h-18.99V12.58H138.52z"/>
	<path d="M185.14,12.58l-11.79,19.84v11.75h-0.9V32.42l-11.83-19.84h1.08l11.25,18.81l11.16-18.81H185.14z"/>
</g>
<g>
</g>
<g>
</g>
<g>
</g>
<g>
</g>
<g>
</g>
<g>
</g>
</svg>
